<?xml version="1.0" encoding="utf-8"?>
<svg width="500" zoomAndPan="magnify" viewBox="52.883 114.205 266.857 174.791" height="500" preserveAspectRatio="xMidYMid meet" version="1.0" xmlns="http://www.w3.org/2000/svg">
  <defs>
    <clipPath id="id1">
      <path d="M 152.476562 183 L 155 183 L 155 234.546875 L 152.476562 234.546875 Z M 152.476562 183 " clip-rule="nonzero"/>
    </clipPath>
    <clipPath id="id2">
      <path d="M 152.476562 179.457031 L 163.882812 179.457031 L 163.882812 234.546875 L 152.476562 234.546875 Z M 152.476562 179.457031 " clip-rule="nonzero"/>
    </clipPath>
    <clipPath id="id3">
      <path d="M 194.308594 114.835938 L 237 114.835938 L 237 234.546875 L 194.308594 234.546875 Z M 194.308594 114.835938 " clip-rule="nonzero"/>
    </clipPath>
    <clipPath id="id4">
      <path d="M 252 187.058594 L 255 187.058594 L 255 234.546875 L 252 234.546875 Z M 252 187.058594 " clip-rule="nonzero"/>
    </clipPath>
    <clipPath id="id5">
      <path d="M 174.027344 212.398438 L 196.84375 212.398438 L 196.84375 234.546875 L 174.027344 234.546875 Z M 174.027344 212.398438 " clip-rule="nonzero"/>
    </clipPath>
    <clipPath id="id6">
      <path d="M 246 160 L 278.472656 160 L 278.472656 234.546875 L 246 234.546875 Z M 246 160 " clip-rule="nonzero"/>
    </clipPath>
  </defs>
  <g clip-path="url(#id1)">
    <path fill="#fffaf9" d="M 153.53125 234.546875 C 152.953125 234.546875 152.476562 234.074219 152.476562 233.496094 L 152.476562 184.171875 C 152.476562 183.59375 152.953125 183.117188 153.53125 183.117188 C 154.109375 183.117188 154.585938 183.59375 154.585938 184.171875 L 154.585938 233.496094 C 154.585938 234.074219 154.109375 234.546875 153.53125 234.546875 " fill-opacity="1" fill-rule="nonzero"/>
  </g>
  <path fill="#fffaf9" d="M 179.738281 181.996094 C 179.15625 181.996094 178.683594 181.523438 178.683594 180.941406 L 178.683594 173.460938 L 158.652344 173.460938 L 158.652344 180.941406 C 158.652344 181.523438 158.175781 181.996094 157.597656 181.996094 C 157.015625 181.996094 156.542969 181.523438 156.542969 180.941406 L 156.542969 171.351562 L 180.792969 171.351562 L 180.792969 180.941406 C 180.792969 181.523438 180.320312 181.996094 179.738281 181.996094 " fill-opacity="1" fill-rule="nonzero"/>
  <path fill="#fffaf9" d="M 176.066406 173.460938 C 175.484375 173.460938 175.011719 172.988281 175.011719 172.40625 L 175.011719 166.5625 C 175.011719 165.375 174.046875 164.410156 172.855469 164.410156 L 164.480469 164.410156 C 163.289062 164.410156 162.324219 165.375 162.324219 166.5625 L 162.324219 172.40625 C 162.324219 172.988281 161.847656 173.460938 161.269531 173.460938 C 160.691406 173.460938 160.214844 172.988281 160.214844 172.40625 L 160.214844 166.5625 C 160.214844 164.214844 162.125 162.304688 164.480469 162.304688 L 172.855469 162.304688 C 175.207031 162.304688 177.121094 164.214844 177.121094 166.5625 L 177.121094 172.40625 C 177.121094 172.988281 176.644531 173.460938 176.066406 173.460938 " fill-opacity="1" fill-rule="nonzero"/>
  <path fill="#fffaf9" d="M 183.804688 214.765625 C 183.226562 214.765625 182.75 214.296875 182.75 213.710938 L 182.75 183.597656 C 182.75 182.71875 182.03125 181.996094 181.144531 181.996094 L 176.164062 181.996094 L 176.164062 195.699219 C 176.164062 196.277344 175.6875 196.753906 175.109375 196.753906 C 174.53125 196.753906 174.054688 196.277344 174.054688 195.699219 L 174.054688 179.890625 L 181.144531 179.890625 C 183.195312 179.890625 184.859375 181.554688 184.859375 183.597656 L 184.859375 213.710938 C 184.859375 214.296875 184.382812 214.765625 183.804688 214.765625 " fill-opacity="1" fill-rule="nonzero"/>
  <g clip-path="url(#id2)">
    <path fill="#fffaf9" d="M 153.53125 234.546875 C 152.953125 234.546875 152.476562 234.074219 152.476562 233.496094 L 152.476562 183.597656 C 152.476562 181.554688 154.140625 179.890625 156.191406 179.890625 L 163.28125 179.890625 L 163.28125 195.699219 C 163.28125 196.277344 162.804688 196.753906 162.226562 196.753906 C 161.640625 196.753906 161.171875 196.277344 161.171875 195.699219 L 161.171875 181.996094 L 156.191406 181.996094 C 155.304688 181.996094 154.585938 182.71875 154.585938 183.597656 L 154.585938 233.496094 C 154.585938 234.074219 154.109375 234.546875 153.53125 234.546875 " fill-opacity="1" fill-rule="nonzero"/>
  </g>
  <path fill="#fffaf9" d="M 271.441406 162.371094 C 270.863281 162.371094 270.394531 161.898438 270.394531 161.320312 L 270.394531 155.0625 C 270.394531 154.386719 269.84375 153.835938 269.164062 153.835938 L 255.40625 153.835938 C 254.726562 153.835938 254.175781 154.386719 254.175781 155.0625 L 254.175781 161.320312 C 254.175781 161.898438 253.707031 162.371094 253.128906 162.371094 C 252.546875 162.371094 252.074219 161.898438 252.074219 161.320312 L 252.074219 155.0625 C 252.074219 153.226562 253.566406 151.726562 255.40625 151.726562 L 269.164062 151.726562 C 271.003906 151.726562 272.496094 153.226562 272.496094 155.0625 L 272.496094 161.320312 C 272.496094 161.898438 272.027344 162.371094 271.441406 162.371094 " fill-opacity="1" fill-rule="nonzero"/>
  <path fill="#fffaf9" d="M 235.648438 190.019531 C 235.070312 190.019531 234.59375 189.546875 234.59375 188.96875 C 234.59375 188.382812 235.070312 187.914062 235.648438 187.914062 L 253.128906 187.914062 C 253.707031 187.914062 254.175781 188.382812 254.175781 188.96875 C 254.175781 189.546875 253.707031 190.019531 253.128906 190.019531 L 235.648438 190.019531 " fill-opacity="1" fill-rule="nonzero"/>
  <path fill="#fffaf9" d="M 261.234375 186.667969 L 261.234375 185.414062 L 263.34375 185.414062 L 263.34375 186.667969 L 261.234375 186.667969 " fill-opacity="1" fill-rule="nonzero"/>
  <path fill="#fffaf9" d="M 261.234375 193.824219 L 261.234375 192.570312 L 263.34375 192.570312 L 263.34375 193.824219 L 261.234375 193.824219 " fill-opacity="1" fill-rule="nonzero"/>
  <path fill="#fffaf9" d="M 261.234375 200.980469 L 261.234375 199.730469 L 263.34375 199.730469 L 263.34375 200.980469 L 261.234375 200.980469 " fill-opacity="1" fill-rule="nonzero"/>
  <path fill="#fffaf9" d="M 261.234375 179.511719 L 261.234375 178.257812 L 263.34375 178.257812 L 263.34375 179.511719 L 261.234375 179.511719 " fill-opacity="1" fill-rule="nonzero"/>
  <path fill="#fffaf9" d="M 261.234375 214.359375 L 261.234375 213.101562 L 263.34375 213.101562 L 263.34375 214.359375 L 261.234375 214.359375 " fill-opacity="1" fill-rule="nonzero"/>
  <path fill="#fffaf9" d="M 261.234375 221.511719 L 261.234375 220.257812 L 263.34375 220.257812 L 263.34375 221.511719 L 261.234375 221.511719 " fill-opacity="1" fill-rule="nonzero"/>
  <path fill="#fffaf9" d="M 261.234375 228.667969 L 261.234375 227.417969 L 263.34375 227.417969 L 263.34375 228.667969 L 261.234375 228.667969 " fill-opacity="1" fill-rule="nonzero"/>
  <path fill="#fffaf9" d="M 261.234375 207.203125 L 261.234375 205.949219 L 263.34375 205.949219 L 263.34375 207.203125 L 261.234375 207.203125 " fill-opacity="1" fill-rule="nonzero"/>
  <path fill="#fffaf9" d="M 243.332031 208.261719 L 243.332031 207.007812 L 245.441406 207.007812 L 245.441406 208.261719 L 243.332031 208.261719 " fill-opacity="1" fill-rule="nonzero"/>
  <path fill="#fffaf9" d="M 243.332031 215.417969 L 243.332031 214.167969 L 245.441406 214.167969 L 245.441406 215.417969 L 243.332031 215.417969 " fill-opacity="1" fill-rule="nonzero"/>
  <path fill="#fffaf9" d="M 243.332031 222.574219 L 243.332031 221.320312 L 245.441406 221.320312 L 245.441406 222.574219 L 243.332031 222.574219 " fill-opacity="1" fill-rule="nonzero"/>
  <path fill="#fffaf9" d="M 243.332031 201.105469 L 243.332031 199.851562 L 245.441406 199.851562 L 245.441406 201.105469 L 243.332031 201.105469 " fill-opacity="1" fill-rule="nonzero"/>
  <path fill="#fffaf9" d="M 167.613281 205.882812 L 167.613281 204.628906 L 169.722656 204.628906 L 169.722656 205.882812 L 167.613281 205.882812 " fill-opacity="1" fill-rule="nonzero"/>
  <path fill="#fffaf9" d="M 167.613281 213.039062 L 167.613281 211.785156 L 169.722656 211.785156 L 169.722656 213.039062 L 167.613281 213.039062 " fill-opacity="1" fill-rule="nonzero"/>
  <path fill="#fffaf9" d="M 167.613281 220.195312 L 167.613281 218.941406 L 169.722656 218.941406 L 169.722656 220.195312 L 167.613281 220.195312 " fill-opacity="1" fill-rule="nonzero"/>
  <path fill="#fffaf9" d="M 167.613281 198.722656 L 167.613281 197.472656 L 169.722656 197.472656 L 169.722656 198.722656 L 167.613281 198.722656 " fill-opacity="1" fill-rule="nonzero"/>
  <path fill="#fffaf9" d="M 183.421875 228.355469 L 183.421875 227.105469 L 185.53125 227.105469 L 185.53125 228.355469 L 183.421875 228.355469 " fill-opacity="1" fill-rule="nonzero"/>
  <path fill="#fffaf9" d="M 183.421875 221.199219 L 183.421875 219.949219 L 185.53125 219.949219 L 185.53125 221.199219 L 183.421875 221.199219 " fill-opacity="1" fill-rule="nonzero"/>
  <g clip-path="url(#id3)">
    <path fill="#fffaf9" d="M 235.648438 234.515625 C 235.070312 234.515625 234.59375 234.039062 234.59375 233.460938 L 234.59375 120.921875 L 230.375 119.4375 C 225.660156 117.78125 220.714844 116.9375 215.667969 116.9375 C 210.621094 116.9375 205.671875 117.78125 200.957031 119.4375 L 196.738281 120.921875 L 196.738281 233.460938 C 196.738281 234.039062 196.261719 234.515625 195.683594 234.515625 C 195.105469 234.515625 194.628906 234.039062 194.628906 233.460938 L 194.628906 119.433594 L 200.257812 117.453125 C 205.195312 115.710938 210.378906 114.828125 215.667969 114.828125 C 220.953125 114.828125 226.136719 115.710938 231.078125 117.453125 L 236.703125 119.433594 L 236.703125 233.460938 C 236.703125 234.039062 236.230469 234.515625 235.648438 234.515625 " fill-opacity="1" fill-rule="nonzero"/>
  </g>
  <path fill="#fffaf9" d="M 215.667969 123.859375 C 211.792969 123.859375 207.964844 124.453125 204.292969 125.625 L 204.011719 125.714844 L 204.03125 126.011719 C 205.207031 143.003906 209.839844 152.070312 212.496094 155.960938 C 213.203125 156.996094 214.390625 157.613281 215.667969 157.613281 C 216.945312 157.613281 218.128906 156.996094 218.835938 155.960938 C 221.496094 152.070312 226.125 143.003906 227.304688 126.011719 L 227.324219 125.714844 L 227.039062 125.625 C 223.367188 124.453125 219.539062 123.859375 215.667969 123.859375 Z M 215.667969 159.722656 C 213.691406 159.722656 211.855469 158.757812 210.757812 157.148438 C 207.894531 152.957031 202.933594 143.214844 201.859375 125.039062 L 201.808594 124.25 L 202.554688 123.980469 C 206.765625 122.5 211.175781 121.75 215.667969 121.75 C 220.160156 121.75 224.566406 122.5 228.773438 123.980469 L 229.523438 124.25 L 229.476562 125.039062 C 228.402344 143.210938 223.4375 152.957031 220.574219 157.148438 C 219.476562 158.757812 217.640625 159.722656 215.667969 159.722656 " fill-opacity="1" fill-rule="nonzero"/>
  <path fill="#fffaf9" d="M 168.667969 164.410156 C 168.089844 164.410156 167.613281 163.9375 167.613281 163.359375 L 167.613281 151.046875 C 167.613281 150.460938 168.089844 149.992188 168.667969 149.992188 C 169.246094 149.992188 169.722656 150.460938 169.722656 151.046875 L 169.722656 163.359375 C 169.722656 163.9375 169.246094 164.410156 168.667969 164.410156 " fill-opacity="1" fill-rule="nonzero"/>
  <g clip-path="url(#id4)">
    <path fill="#fffaf9" d="M 253.128906 234.515625 C 252.546875 234.515625 252.074219 234.039062 252.074219 233.460938 L 252.074219 188.96875 C 252.074219 188.382812 252.546875 187.914062 253.128906 187.914062 C 253.707031 187.914062 254.175781 188.382812 254.175781 188.96875 L 254.175781 233.460938 C 254.175781 234.039062 253.707031 234.515625 253.128906 234.515625 " fill-opacity="1" fill-rule="nonzero"/>
  </g>
  <g clip-path="url(#id5)">
    <path fill="#fffaf9" d="M 175.109375 234.546875 C 174.53125 234.546875 174.054688 234.074219 174.054688 233.496094 L 174.054688 212.65625 L 195.683594 212.65625 C 196.261719 212.65625 196.738281 213.132812 196.738281 213.710938 C 196.738281 214.296875 196.261719 214.765625 195.683594 214.765625 L 176.164062 214.765625 L 176.164062 233.496094 C 176.164062 234.074219 175.6875 234.546875 175.109375 234.546875 " fill-opacity="1" fill-rule="nonzero"/>
  </g>
  <g clip-path="url(#id6)">
    <path fill="#fffaf9" d="M 277.425781 234.546875 C 276.839844 234.546875 276.371094 234.074219 276.371094 233.496094 L 276.371094 163.976562 C 276.371094 163.09375 275.648438 162.371094 274.765625 162.371094 L 249.804688 162.371094 C 248.921875 162.371094 248.199219 163.09375 248.199219 163.976562 L 248.199219 183.054688 C 248.199219 183.636719 247.730469 184.109375 247.144531 184.109375 C 246.566406 184.109375 246.097656 183.636719 246.097656 183.054688 L 246.097656 163.976562 C 246.097656 161.929688 247.757812 160.265625 249.804688 160.265625 L 274.765625 160.265625 C 276.808594 160.265625 278.480469 161.929688 278.480469 163.976562 L 278.480469 233.496094 C 278.480469 234.074219 278.003906 234.546875 277.425781 234.546875 " fill-opacity="1" fill-rule="nonzero"/>
  </g>
  <path fill="#ff9136" d="M 202.90625 169.15625 L 207.414062 169.15625 L 207.414062 233.460938 L 202.90625 233.460938 L 202.90625 169.15625 " fill-opacity="1" fill-rule="nonzero"/>
  <path fill="#ff9136" d="M 213.414062 169.15625 L 217.921875 169.15625 L 217.921875 233.460938 L 213.414062 233.460938 L 213.414062 169.15625 " fill-opacity="1" fill-rule="nonzero"/>
  <path fill="#ff9136" d="M 223.917969 169.15625 L 228.421875 169.15625 L 228.421875 233.460938 L 223.917969 233.460938 L 223.917969 169.15625 " fill-opacity="1" fill-rule="nonzero"/>
  <path fill="#fffaf9" d="M 80.992188 242.332031 L 76.597656 242.332031 C 75.789062 242.332031 75.132812 242.988281 75.132812 243.796875 L 75.132812 243.941406 C 75.132812 244.753906 75.789062 245.40625 76.597656 245.40625 L 80.988281 245.40625 C 81.800781 245.40625 82.46875 244.753906 82.457031 243.941406 L 82.457031 243.796875 C 82.457031 242.988281 81.804688 242.332031 80.992188 242.332031 Z M 80.992188 242.332031 " fill-opacity="1" fill-rule="nonzero"/>
  <path fill="#fffaf9" d="M 75.152344 219.507812 C 75.242188 219.507812 75.332031 219.507812 75.421875 219.496094 L 87.964844 218.285156 C 88.921875 218.195312 89.765625 217.609375 90.1875 216.753906 L 91.65625 213.800781 L 109.734375 212.34375 C 111.09375 212.234375 112.171875 211.167969 112.28125 209.800781 L 113.617188 193.445312 C 113.683594 192.667969 113.417969 191.902344 112.894531 191.335938 C 112.371094 190.769531 111.625 190.449219 110.847656 190.449219 L 89.140625 190.449219 C 88.320312 190.449219 87.53125 190.816406 87.007812 191.449219 C 83.425781 195.746094 71.796875 210.289062 72.382812 216.976562 C 72.449219 217.707031 72.804688 218.386719 73.375 218.863281 C 73.875 219.285156 74.507812 219.507812 75.152344 219.507812 Z M 90.453125 196 L 107.832031 196 L 106.933594 207.003906 L 89.640625 208.390625 C 88.664062 208.46875 87.808594 209.046875 87.375 209.925781 L 85.898438 212.910156 L 78.679688 213.597656 C 80.535156 209.300781 85.507812 202.074219 90.453125 196 Z M 90.453125 196 " fill-opacity="1" fill-rule="nonzero"/>
  <path fill="#fffaf9" d="M 106.222656 232.03125 C 104.820312 232.03125 103.683594 232.585938 103.683594 233.261719 C 103.683594 233.941406 104.820312 234.496094 106.222656 234.496094 C 107.621094 234.496094 108.757812 233.941406 108.757812 233.261719 C 108.757812 232.585938 107.621094 232.03125 106.222656 232.03125 Z M 106.222656 232.03125 " fill-opacity="1" fill-rule="nonzero"/>
  <path fill="#fffaf9" d="M 107.046875 244.375 C 97.003906 244.375 88.84375 252.523438 88.84375 262.550781 C 88.84375 272.578125 97.003906 280.726562 107.046875 280.726562 C 117.074219 280.726562 125.246094 272.578125 125.246094 262.550781 C 125.25 252.523438 117.085938 244.375 107.046875 244.375 Z M 107.046875 275.175781 C 100.074219 275.175781 94.402344 269.515625 94.402344 262.550781 C 94.402344 255.589844 100.070312 249.925781 107.046875 249.925781 C 114.015625 249.925781 119.6875 255.585938 119.6875 262.550781 C 119.6875 269.515625 114.019531 275.175781 107.046875 275.175781 Z M 107.046875 275.175781 " fill-opacity="1" fill-rule="nonzero"/>
  <path fill="#fffaf9" d="M 256.992188 250.960938 C 246.964844 250.960938 238.792969 259.109375 238.792969 269.136719 C 238.792969 279.164062 246.953125 287.3125 256.992188 287.3125 C 267.035156 287.3125 275.207031 279.164062 275.207031 269.136719 C 275.207031 259.113281 267.035156 250.960938 256.992188 250.960938 Z M 256.992188 281.761719 C 250.023438 281.761719 244.351562 276.101562 244.351562 269.136719 C 244.351562 262.175781 250.019531 256.511719 256.992188 256.511719 C 263.964844 256.511719 269.648438 262.171875 269.648438 269.136719 C 269.644531 276.101562 263.964844 281.761719 256.992188 281.761719 Z M 256.992188 281.761719 " fill-opacity="1" fill-rule="nonzero"/>
  <path fill="#fffaf9" d="M 256.992188 263.308594 C 253.769531 263.308594 251.15625 265.917969 251.15625 269.136719 C 251.15625 272.359375 253.769531 274.96875 256.992188 274.96875 C 260.21875 274.96875 262.832031 272.359375 262.832031 269.136719 C 262.832031 265.917969 260.21875 263.308594 256.992188 263.308594 Z M 256.992188 263.308594 " fill-opacity="1" fill-rule="nonzero"/>
  <path fill="#fffaf9" d="M 107.046875 256.722656 C 103.820312 256.722656 101.207031 259.332031 101.207031 262.554688 C 101.207031 265.773438 103.820312 268.382812 107.046875 268.382812 C 110.269531 268.382812 112.882812 265.773438 112.882812 262.554688 C 112.882812 259.332031 110.269531 256.722656 107.046875 256.722656 Z M 107.046875 256.722656 " fill-opacity="1" fill-rule="nonzero"/>
  <path fill="#fffaf9" d="M 317.214844 241.324219 L 297.433594 234.207031 C 297.121094 234.097656 296.5 234.039062 296.464844 234.039062 L 136.921875 235.460938 L 136.921875 185.121094 C 136.921875 183.589844 135.679688 182.34375 134.144531 182.34375 L 84.363281 182.34375 C 83.550781 182.34375 82.785156 182.699219 82.261719 183.300781 C 81.09375 184.644531 55.898438 214.234375 61.089844 241.359375 C 61.101562 241.4375 61.023438 241.503906 61.035156 241.582031 C 61.058594 241.683594 61.144531 241.738281 61.179688 241.835938 C 61.324219 242.535156 61.402344 243.246094 61.578125 243.945312 L 57.410156 243.945312 C 56.617188 243.945312 55.875 244.277344 55.339844 244.867188 C 54.804688 245.457031 54.5625 246.234375 54.640625 247.011719 C 54.828125 248.753906 55.953125 257.628906 60.167969 260.625 C 60.632812 260.945312 61.203125 261.132812 61.78125 261.132812 L 72.496094 261.125 L 84.640625 259.914062 C 86.066406 259.769531 87.140625 258.582031 87.140625 257.148438 C 87.140625 243.359375 98.292969 242.304688 99.519531 242.226562 L 116.164062 241.648438 L 132.367188 254.972656 C 132.855469 255.371094 133.488281 255.605469 134.132812 255.605469 L 134.179688 255.605469 L 235.457031 253.929688 C 234.632812 255.171875 233.6875 256.335938 233.121094 257.738281 C 232.53125 259.148438 233.222656 260.769531 234.644531 261.355469 C 234.976562 261.5 235.332031 261.566406 235.699219 261.566406 C 236.800781 261.566406 237.824219 260.910156 238.269531 259.84375 C 241.203125 252.726562 248.722656 247.953125 256.992188 247.953125 C 265.265625 247.953125 272.792969 252.742188 275.71875 259.84375 C 276.296875 261.253906 277.886719 261.941406 279.34375 261.367188 C 280.769531 260.777344 281.433594 259.167969 280.867188 257.746094 C 280.277344 256.3125 279.320312 255.113281 278.476562 253.835938 L 316.28125 253.835938 C 317.816406 253.835938 319.0625 252.59375 319.0625 251.0625 L 319.0625 243.957031 C 319.054688 242.769531 318.308594 241.726562 317.21875 241.324219 Z M 131.363281 235.550781 L 120.109375 235.941406 C 120.367188 232.453125 120.578125 229.234375 120.765625 226.199219 C 120.765625 226.179688 120.789062 226.15625 120.789062 226.132812 C 120.789062 226.121094 120.777344 226.113281 120.777344 226.101562 C 122.167969 203.394531 121.832031 192.867188 121.042969 187.882812 L 131.375 187.882812 L 131.375 235.550781 Z M 85.675781 187.898438 L 115.441406 187.898438 C 115.964844 190.441406 116.808594 198.636719 115.339844 223.761719 L 73.464844 226.816406 C 73.03125 225.859375 72.230469 225.09375 71.117188 225.09375 L 71.097656 225.09375 L 66.835938 225.128906 C 70.285156 207.90625 82.425781 191.90625 85.675781 187.898438 Z M 66.058594 230.679688 L 68.414062 230.65625 L 68.625 237.507812 L 66.15625 237.917969 C 65.878906 235.519531 65.871094 233.097656 66.058594 230.679688 Z M 99.285156 236.675781 C 93.503906 236.953125 82.871094 241.117188 81.691406 254.628906 L 72.21875 255.585938 L 62.890625 255.582031 C 62.011719 254.429688 61.199219 252.019531 60.664062 249.5 L 65.414062 249.5 C 66.335938 249.5 67.191406 249.042969 67.714844 248.289062 C 68.226562 247.546875 68.335938 246.578125 68.003906 245.722656 C 67.703125 244.949219 67.523438 244.160156 67.292969 243.371094 L 71.929688 242.59375 C 73.308594 242.363281 74.285156 241.148438 74.25 239.761719 L 74.03125 232.335938 L 114.996094 229.347656 C 114.851562 231.503906 114.695312 233.765625 114.527344 236.144531 Z M 313.492188 248.265625 L 273.351562 248.265625 C 268.8125 244.671875 263.140625 242.382812 256.980469 242.382812 C 250.832031 242.382812 245.148438 244.679688 240.613281 248.277344 L 135.109375 250.019531 L 124.554688 241.347656 L 134.074219 241.015625 C 134.097656 241.015625 134.105469 241.039062 134.140625 241.039062 L 134.164062 241.039062 L 296.011719 239.59375 L 313.492188 245.878906 Z M 313.492188 248.265625 " fill-opacity="1" fill-rule="nonzero"/>
</svg>